<svg id="Ebene_1" data-name="Ebene 1" xmlns="http://www.w3.org/2000/svg" viewBox="0 0 427 75"><defs><style>.cls-1{fill:#e1ca00;}</style></defs><title>subbrand-logo-electric-space</title><g id="Page-1"><g id="subbrand-logo-electric"><path id="Yellow" class="cls-1" d="M78.887,10.75688a24.22092,24.22092,0,0,0-6.04144.70372v7.23828H59.73871A25.60242,25.60242,0,0,0,52.36611,33.477H72.84557V40.6148H52.36611A26.22616,26.22616,0,0,0,59.73871,55.393H72.74318v7.23829A25.03871,25.03871,0,0,0,78.887,63.335c14.74522,0,26.8281-11.76221,26.8281-26.33931A26.65955,26.65955,0,0,0,78.887,10.75688Z"/><path id="Circle" d="M78.887,0C57.998,0,41.1024,16.58772,41.1024,37.09619S57.998,74.1924,78.887,74.1924s37.78462-16.58774,37.78462-37.09621C116.56924,16.58772,99.67368,0,78.887,0Zm0,69.36689c-18.12433,0-32.86955-14.47657-32.86955-32.27068S60.76269,4.82551,78.887,4.82551s32.86955,14.47657,32.86955,32.27068S97.01134,69.36688,78.887,69.36688Z"/><path id="MINI-Electric" d="M383.38483,46.86233a7.98949,7.98949,0,0,1-5.365,1.82187,10.81628,10.81628,0,0,1-6.19031-1.61943,9.84888,9.84888,0,0,1-3.40466-4.251,13.94015,13.94015,0,0,1-1.03171-5.46559,17.16775,17.16775,0,0,1,1.13489-6.07288,10.94547,10.94547,0,0,1,3.50784-4.55466A10.16613,10.16613,0,0,1,378.01987,25a12.204,12.204,0,0,1,4.12689.60729,18.44,18.44,0,0,1,3.19833,1.51822v4.75709h-3.09515a6.74144,6.74144,0,0,0-1.54761-4.04858,3.95858,3.95858,0,0,0-3.09515-1.31579,4.64925,4.64925,0,0,0-4.33322,2.42915,12.59371,12.59371,0,0,0-1.4444,6.2753,18.14824,18.14824,0,0,0,.92856,6.17409,9.376,9.376,0,0,0,2.4761,3.94737,5.14654,5.14654,0,0,0,3.50784,1.417,5.464,5.464,0,0,0,3.50787-1.21458,6.12489,6.12489,0,0,0,2.06342-3.74494h1.85709A8.52183,8.52183,0,0,1,383.38483,46.86233ZM365.53607,27.02428h-3.50784V46.55869h3.50784v1.82186H354.18716V46.55869H357.695V27.02428h-3.50784V25.20241h11.34891ZM350.67932,46.55869v.10122h2.57932v1.72065h-6.49985l-6.603-10.4251h-2.06342v8.70445H340.878v1.72065H330.87033V46.65991H333.656V27.12549h-2.78564V25.20241h10.833a7.95286,7.95286,0,0,1,5.67447,1.92308,6.01366,6.01366,0,0,1,.7222,8.09717,6.6643,6.6643,0,0,1-3.40466,2.22672Zm-12.4838-19.53441v9.0081H341.497a2.76458,2.76458,0,0,0,2.373-1.31579,5.47569,5.47569,0,0,0,.92853-3.23886,5.26548,5.26548,0,0,0-.92853-3.23887,2.90843,2.90843,0,0,0-2.373-1.21457ZM314.25967,48.38055V46.55869h3.40466V27.02428H314.466l-1.75391,4.75708h-2.373V25.20241h19.19v6.57895h-2.373L325.299,27.02428h-3.1983V46.55869h3.40466v1.82186Zm-8.56326-1.51822a7.98949,7.98949,0,0,1-5.365,1.82187,10.81628,10.81628,0,0,1-6.19031-1.61943,9.84888,9.84888,0,0,1-3.40466-4.251,13.93988,13.93988,0,0,1-1.03172-5.46559,17.16842,17.16842,0,0,1,1.13489-6.07288,10.94559,10.94559,0,0,1,3.50784-4.55466A10.16618,10.16618,0,0,1,300.33145,25a12.204,12.204,0,0,1,4.12689.60729,18.44,18.44,0,0,1,3.19833,1.51822v4.75709h-3.09518a6.74125,6.74125,0,0,0-1.54758-4.04858,3.95858,3.95858,0,0,0-3.09515-1.31579,4.64921,4.64921,0,0,0-4.33321,2.42915,12.59354,12.59354,0,0,0-1.44441,6.2753,18.14862,18.14862,0,0,0,.92856,6.17409,9.376,9.376,0,0,0,2.4761,3.94737,5.14654,5.14654,0,0,0,3.50784,1.417,5.46384,5.46384,0,0,0,3.50784-1.21458,6.12477,6.12477,0,0,0,2.06345-3.74494H308.482A8.522,8.522,0,0,1,305.69641,46.86233ZM285.062,41.80161v-.10122h2.5793v6.68016H268.96721V46.45747h2.78564V26.92306h-2.78564V25.20241H287.3318v6.47773h-2.47612l-1.8571-4.75709h-6.80934v8.29959h3.71419V32.48986H282.07v7.28745h-2.16661v-2.7328h-3.71419v9.51417h7.11887Zm-17.6424,6.57895H248.84869V46.55869h2.78564V27.02428h-2.78564V25.20241h10.00768v1.82186h-2.78564V46.55869h7.11887l1.75392-4.75708h2.47612ZM244.206,41.80161v-.10122h2.5793v6.68016h-18.6741V46.45747h2.78563V26.92306h-2.78563V25.20241h18.36458v6.47773h-2.47612l-1.85709-4.75709h-6.80934v8.29959h3.71419V32.48986h2.1666v7.28745h-2.1666v-2.7328h-3.71419v9.51417H242.452ZM217.48445,27.02428h-3.50784V46.55869h3.50784v1.82186H206.13554V46.55869h3.50784V27.02428h-3.50784V25.20241h11.34891ZM190.76294,48.38055h-7.53156V46.55869H186.017V27.02428h-2.78564V25.20241h6.49983L200.0484,41.0931V27.02428h-2.78563V25.20241h7.53154v1.82186h-2.78564V48.38055H199.3262L187.97729,30.87043V46.55869h2.78564Zm-9.1823-21.35627H178.0728V46.55869h3.50784v1.82186H170.23174V46.55869h3.50784V27.02428h-3.50784V25.20241h11.34891ZM147.43076,48.38055h-7.42838V46.55869H142.788V27.02428h-2.78564V25.20241h7.01569L154.54961,41.498l7.01569-16.29555H168.581v1.82186h-2.78564V46.55869H168.581v1.82186h-9.9045V46.55869H161.359V30.76922l-6.91251,15.78947h-2.26978l-7.42838-15.78947V46.55869h2.68247Z"/></g></g></svg>